Patient4_TMGait_0pt2_03_left_14_EMG.mot
version=1
nRows=33
nColumns=33
inDegrees=no
endheader
time	1LAddLong	2LGlutMax	3LGlutMed	4LIliopsoas	5LSemiMemb	6LBicFemLong	7LRecFem	8LVastMed	9LVastLat	10LGasMed	11LTibAnt	12lTibPost	13LPeroneusLong	14LSol	15LExtDigLong	16LFlexDigLong	17RAddLong	18RGlutMax	19RGlutMed	20RIliopsoas	21RSemiMemb	22RBicFemLong	23RRecFem	24RVastMed	25RVastLat	26RGasMed	27RTibAnt	28RTibPost	29RPeroneusLong	30RSol	31RExtDigLong	32RFlexDigLong
30.375	-0.006714	-0.042419	-0.014191	0.004425	0.017853	-0.089569	0.026855	0.002289	-0.03952	-0.003052	-0.10178	0.006104	-0.044708	-0.026398	0.40955	0.007629	0.056305	0.012665	-0.1471	-0.03891	0.17731	-0.095215	0.052338	0.13092	0.13657	0.000458	0.03418	-0.001678	0.26138	0.018768	0.005188	-0.013885
30.376	-0.001526	-0.070801	-0.027924	0.010223	0.039063	-0.012817	-0.039673	-0.002136	-0.084534	-0.033875	-0.064087	0.003967	-0.033722	-0.005341	0.17471	0.007629	0.045471	-0.029755	-0.43442	-0.088806	0.24612	-0.044098	0.078735	0.16022	0.056	-0.010681	0.02243	-0.004425	0.15579	0.032501	-0.002899	-0.007019
30.377	-0.002136	-0.043793	-0.0177	-0.000763	0.007324	0.056305	-0.10803	0.005493	-0.08667	-0.056152	-0.002747	0.00061	0.089417	-0.052032	0.22751	0.010986	-0.027466	-0.02121	-0.70999	-0.069122	0.090179	-0.003357	0.12573	0.12482	-0.10773	-0.010529	-0.10346	-0.00946	0.94681	-0.020447	-0.006104	-0.001526
30.378	-0.003967	-0.01236	-0.032806	0.016632	-0.000763	0.035248	-0.065155	0.007324	-0.04425	-0.027924	-0.019684	-0.000458	0.035706	-0.050964	-0.077057	0.006409	-0.06546	0.048676	-0.7135	-0.021515	-0.092773	0.022888	0.12558	0.23834	-0.16388	-0.003662	-0.079651	-0.001984	1.1714	-0.023956	-0.008545	-0.00061
30.379	0	-0.028992	-0.0383	0.024109	0.024414	-0.054169	0.036163	0.010376	-0.036774	-0.034637	-0.043793	0.006256	0.023346	-0.075226	-0.053406	0.005951	-0.070801	0.081635	-0.15503	0.12482	0.00946	0.1004	0.15595	0.22247	-0.1532	0	-0.02121	-0.000763	-0.25253	0.001526	-0.001678	-0.005493
30.38	0.003204	-0.024109	-0.032196	0.020905	0.027008	-0.056152	0.076752	0.01297	0.001526	0.024261	-0.029449	-0.000458	-0.013885	-0.11993	-0.12604	0.008392	-0.036774	0.002899	0.34836	0.11063	0.11185	0.097809	0.30395	0.10101	-0.18799	0	-0.002747	-0.003967	-0.88303	-0.007172	-0.004272	-0.007782
30.381	-0.009308	-0.031281	0.01358	0.012207	0.014343	-0.046234	0.049133	0.014648	0.019531	-0.006714	-0.035553	0	-0.049133	-0.11581	-0.12238	-0.004425	-0.016785	0.018768	0.11292	0.036926	0.1474	0.017395	0.41946	-0.088806	-0.21271	0.000305	0.009766	-0.004272	-1.1191	0.049744	-0.001984	-0.005035
30.382	-0.000763	-0.020294	-0.026855	0.008087	0.006104	-0.031433	0.11704	0.02243	0.11993	0.021057	-0.050201	0.001831	-0.027466	-0.075684	-0.059814	0.002747	-0.006866	-0.023956	-0.23865	-0.001678	0.11551	-0.076141	0.42419	-0.16708	-0.20996	0.005035	0.010681	-0.000916	-1.1388	0.028229	-0.002289	-0.023193
30.383	0.027466	-0.028076	-0.028229	0.003052	-0.000458	0.006866	0.12924	0.022278	0.16907	0.027008	-0.027771	0.000916	0.00885	-0.078735	0.014343	0.000305	0.006561	-0.016785	0.075226	-0.069885	0.13458	-0.11719	0.21561	-0.090027	-0.15182	0.016174	-0.049744	-0.001068	-0.47134	-0.090027	-0.003967	-0.013123
30.384	0.026093	-0.005646	-0.037231	0.008698	-0.018616	0.075073	0.1358	0.001831	0.14496	0.045319	-0.036469	0.005035	0.041046	-0.062256	0.098724	-0.000916	0.020905	0.005188	0.006104	-0.072174	0.11673	-0.12482	0.10391	-0.098114	0.065613	0.016937	-0.061035	-0.001373	0.30716	-0.001068	-0.002899	-0.015259
30.385	0.006409	-0.028076	-0.020599	0.032959	-0.036469	0.14664	0.18845	-0.021667	0.097351	0.040894	-0.042419	0.005646	0.03891	-0.077667	0.028839	0.005035	0.038452	-0.012817	-0.049896	-0.057983	0.10666	-0.14252	-0.008698	-0.17227	0.20432	0.011139	-0.034485	-0.001373	0.18402	0.038605	-0.005188	-0.01358
30.386	-0.004578	-0.007477	0.003204	0.004883	-0.00351	0.1033	0.18982	-0.028076	0.067902	0.023804	-0.041656	0.001831	0.023651	-0.073242	0.045471	0.006409	0.054474	0.037231	-0.20309	-0.10376	-0.023956	-0.080872	-0.001221	-0.22766	0.16571	0.000458	-0.025482	-0.001068	0.09964	0.068512	-0.002289	-0.013885
30.387	-0.006561	-0.021362	-0.034027	0.007782	0.034485	0.048218	0.087891	-0.014038	0.039673	0.011292	-0.011444	0.005341	0.006409	-0.010834	0.050354	-0.001068	0.075226	0.059204	-0.45563	-0.049286	-0.088348	-0.06073	0.025787	-0.17944	0.1947	-0.000153	-0.020905	-0.000916	0.12497	0.058136	-0.000305	-0.01236
30.388	-0.001984	0.018311	0.001678	-0.002899	-0.009766	0.082245	-0.06073	-0.007324	0.035706	0.02243	0.039978	-0.002747	-0.040894	-0.006866	0.034943	0.006714	0.075378	0.11414	-0.30716	-0.043182	-0.056305	-0.022278	-0.17853	-0.042419	0.35721	-0.008545	-0.005341	0	-0.15579	0.05127	-0.00473	-0.008392
30.389	0.006409	0.006104	0.061798	0.002594	-0.032196	0.14679	-0.13901	0.000763	0.094147	0.023956	0.16388	-0.001221	-0.052795	-0.007172	0.072479	0.006714	0.040741	0.15717	0.17777	-0.03891	0.006104	0.027618	-0.44662	0.059052	0.4216	-0.010071	0.002136	-0.00824	0.003052	0.0354	-0.001831	-0.009766
30.39	0.006104	-0.020294	0.03952	0.010223	-0.025787	0.092926	-0.22751	0.006409	0.076294	0.007172	0.15854	0.001526	0.007477	0.024261	0.13611	0.010529	0.041199	0.10635	0.30991	-0.001831	-0.053101	0.002441	-0.35843	-0.029602	0.31647	-0.019836	-0.016022	-0.006104	-0.020294	0.072021	-0.002747	-0.012512
30.391	0.007477	-0.0383	0.000305	0.002136	-0.037994	-0.011292	-0.19196	0.016327	0.086212	0.001068	0.19867	0.001831	0.026245	-0.012817	0.014343	0.001221	0.00885	-0.002899	0.048065	0.071259	0.5658	0.009308	-0.28122	-0.16037	0.19928	-0.02121	-0.019989	-0.004425	0.070648	0.086212	-0.003662	-0.002899
30.392	0.009766	-0.037842	-0.01236	0.007629	-0.086823	0.004578	-0.053864	0.011597	0.19882	0.024261	0.13947	0.001984	0.027313	0.018158	0.39642	0.006714	-0.006866	-0.010834	0.14908	0.13947	0.41229	0.028534	-0.10513	-0.076752	-0.10803	-0.022583	-0.027466	-0.002747	0.10681	0.012054	-0.003357	-0.007935
30.393	0.009613	-0.001373	-0.009613	0.01236	-0.086823	-0.041199	0.088196	0.010681	0.23071	0.009766	0.027924	0.002747	0.042114	0.11292	-0.037231	0.009613	0.017548	0.008087	-0.14175	0.10941	-0.044556	0.028076	0.1152	-0.066071	-0.3186	-0.02121	-0.031128	-0.000458	0.22644	0.022583	-0.001831	-0.009308
30.394	0.014801	-0.045624	-0.009155	0.018616	0.023651	-0.19348	0.14633	-0.007324	0.19073	-0.00885	-0.084229	0.003662	0.072479	0.16754	0.12772	-0.001984	0.04303	0.057526	-0.29846	-0.011749	-0.14221	-0.009155	0.11688	-0.0737	-0.19089	-0.019836	-0.021973	0.001221	0.24384	0.026398	-0.002594	0.005035
30.395	0.008392	-0.032349	-0.029755	0.014038	0.15121	-0.22171	0.15671	-0.046387	0.11688	-0.018311	-0.098419	0.001068	0.092468	0.19913	0.16357	0.01297	0.000916	0.088043	-0.34882	-0.049896	-0.092773	-0.013733	0.063019	0.057068	-0.11337	-0.011444	0.016632	0.002899	0.13168	0.065002	-0.004883	-0.014801
30.396	0.010529	-0.004578	-0.014343	0.010376	0.09552	-0.10239	0.15289	0.000763	-0.043182	0.000763	-0.14969	0.001831	0.064087	0.19363	0.10239	0.000763	-0.069885	0.09079	-0.18982	0.019531	-0.20401	0.099182	0.022736	0.076294	-0.068359	0.010223	0.014801	-0.006409	-0.032196	0.032959	0.002899	-0.010681
30.397	0.009155	0.036163	-0.018463	0.012817	0.050201	0.002899	0.10544	0.029144	-0.13275	0.00412	-0.1947	0.013428	0.068817	0.13626	0.1001	-0.002594	-0.11139	0.049896	0.42755	-0.065308	0.054016	0.12039	0.021515	0.10437	-0.062866	0.028687	-0.029907	-0.000763	-0.009613	0.010376	-0.00412	-0.013733
30.398	0.007477	-0.040131	-0.009918	0.00946	0.010681	0.011902	0.092468	0.024414	-0.13443	0.005341	-0.12299	0.001526	0.025787	0.080566	-0.67368	0.008698	-0.055695	-0.007782	0.31113	-0.1178	0.13412	0.06485	0.094299	0.011139	-0.053711	0.00885	-0.021057	-0.003662	0.018158	0.003815	-0.000458	-0.012512
30.399	0.004883	-0.044098	-0.002289	0.005646	0.006714	0.013885	0.10223	-0.002594	-0.081787	0.014954	-0.033417	-0.001068	0.012512	-0.052032	-0.56824	0.002289	0.024261	-0.039978	0.21729	-0.054474	-0.016785	0.019989	0.15396	-0.074768	-0.056305	0.004425	0.027466	0.000305	-0.31448	0.085144	0.001221	-0.021362
30.4	0.002441	-0.028534	-0.033417	-0.006866	0.022736	0.037689	0.054932	-0.011444	-0.045776	0.033722	0.063934	0.002594	-0.027466	-0.045471	-0.70252	-0.007172	0.069733	-0.031128	0.043488	0.11108	-0.009155	-0.036621	0.15686	-0.11063	-0.1033	-0.009003	0.023956	-0.003357	-0.26901	0.085907	-0.003662	-0.016174
30.401	0.008087	-0.033112	-0.025482	0.007324	0.024719	-0.046082	-0.030212	-0.001221	-0.006409	0.068054	0.15579	-0.001678	-0.12741	0.002747	0.050507	-0.010681	0.11337	-0.001984	-0.062408	0.22446	0.02243	-0.054169	0.22675	-0.14114	-0.17425	-0.002136	-0.006561	-0.002136	-0.093079	0.068665	-0.004883	-0.010376
30.402	0.00473	-0.053406	-0.013733	0.006866	0.026398	-0.10101	-0.010986	0.004578	0.021057	0.075226	0.31662	0.002747	-0.15503	0.032043	-0.10346	-0.004425	0.09964	-0.016174	-0.27939	0.15015	0.084839	-0.03418	0.23727	-0.21301	-0.19882	-0.006409	-0.025177	0.006409	-0.030365	0.014496	-0.003357	-0.006256
30.403	0.007019	-0.027161	-0.000763	0.003052	0.018921	0.018921	-0.026398	0.006561	0.057373	0.0354	0.062866	0.023193	-0.058899	-0.015259	0.60333	0.006561	0.088501	0.000763	-0.2446	0.08255	0.11185	-0.005493	0.21835	-0.3566	-0.20371	-0.002441	-0.03067	-0.001678	-0.022125	0.027313	-0.004578	-0.009766
30.404	0.005646	-0.040131	-0.002594	0.012817	0.007782	-0.006714	0.025482	0.011444	0.012054	-0.028992	-0.078125	-0.003967	0.079651	0.085297	0.47272	0.013885	0.088196	0.012665	-0.045929	0.040588	0.20584	-0.074158	0.21362	-0.4837	-0.1889	-0.004883	-0.010834	-0.001373	-0.041199	0.026855	-0.00473	-0.016785
30.405	0.007629	-0.01297	-0.025024	0.013275	-0.005341	-0.027313	-0.074921	0.01297	-0.005188	-0.056763	-0.002899	0.006714	0.053558	0.23086	0.30258	0.016022	0.040283	0.029144	-0.01236	0.032349	0.24902	-0.093231	0.038452	-0.44037	0.1181	-0.00412	-0.023041	-0.002899	0.000458	0.022278	-0.00412	-0.003662
30.406	0.00473	0.007782	-0.044403	0.009308	-0.045471	-0.001221	-0.077972	0.007629	0.019989	-0.046692	-0.13657	0.003357	-0.000763	0.29373	-0.06073	0.015411	-0.093079	-0.016937	-0.2095	0.005798	-0.083923	-0.000763	-0.025787	-0.075073	0.45578	0.000305	-0.00473	-0.003662	0.016022	-0.051575	-0.005035	-0.009003
30.407	-0.006561	-0.017395	-0.018005	0.002899	-0.058289	0.00061	-0.003204	0.007019	0.027161	-0.037842	-0.11292	0.002136	0.070648	0.29205	-0.004578	0.016022	-0.17242	0	-0.17105	-0.010681	-0.13473	-0.09903	-0.037994	0.09964	0.57159	-0.000458	0.02594	-0.003204	-0.047455	-0.035706	-0.005493	-0.016327
